<?xml version="1.0" encoding="utf-8"?>
<!-- Generator: Adobe Illustrator 16.0.0, SVG Export Plug-In . SVG Version: 6.00 Build 0)  -->
<!DOCTYPE svg PUBLIC "-//W3C//DTD SVG 1.1//EN" "http://www.w3.org/Graphics/SVG/1.1/DTD/svg11.dtd">
<svg version="1.1" id="Layer_1" xmlns="http://www.w3.org/2000/svg" xmlns:xlink="http://www.w3.org/1999/xlink" x="0px" y="0px"
	 width="60px" height="60px" viewBox="0 0 60 60" enable-background="new 0 0 60 60" xml:space="preserve">
<g id="helmet_x5F_goggles_1_">
	
		<line fill="none" stroke="#333333" stroke-width="2" stroke-linecap="round" stroke-linejoin="round" stroke-miterlimit="10" x1="30" y1="3" x2="30" y2="17"/>
	<path fill="none" stroke="#333333" stroke-width="2" stroke-linecap="round" stroke-linejoin="round" stroke-miterlimit="10" d="
		M22,15V7.5C22,6.119,23.119,5,24.5,5h11C36.881,5,38,6.119,38,7.5V15"/>
	<path fill="none" stroke="#333333" stroke-width="2" stroke-linecap="round" stroke-linejoin="round" stroke-miterlimit="10" d="
		M22,8.5C13.805,11.7,8,19.672,8,29l-2,2v4c0,0,7.25,2,24,2s24-2,24-2v-4l-2-2c0-9.328-5.805-17.3-14-20.5"/>
	
		<line fill="none" stroke="#333333" stroke-width="2" stroke-linecap="round" stroke-linejoin="round" stroke-miterlimit="10" x1="14" y1="29" x2="46" y2="29"/>
	<path fill="none" stroke="#333333" stroke-width="2" stroke-linecap="round" stroke-linejoin="round" stroke-miterlimit="10" d="
		M30,47c1.104,0,2,0.896,2,2c0,0,1.083,8,7,8h5c3.313,0,6-2.687,6-6v-6c0-2.209-1.791-4-4-4H14c-2.209,0-4,1.791-4,4v6
		c0,3.313,2.687,6,6,6h5c5.917,0,7-8,7-8C28,47.896,28.896,47,30,47z"/>
	
		<polyline fill="none" stroke="#333333" stroke-width="2" stroke-linecap="round" stroke-linejoin="round" stroke-miterlimit="10" points="
		10,51 6,51 6,45 10,45 	"/>
	
		<polyline fill="none" stroke="#333333" stroke-width="2" stroke-linecap="round" stroke-linejoin="round" stroke-miterlimit="10" points="
		50,51 54,51 54,45 50,45 	"/>
</g>
</svg>
