<?xml version="1.0" encoding="utf-8"?>
<!-- Generator: Adobe Illustrator 16.0.0, SVG Export Plug-In . SVG Version: 6.00 Build 0)  -->
<!DOCTYPE svg PUBLIC "-//W3C//DTD SVG 1.1//EN" "http://www.w3.org/Graphics/SVG/1.1/DTD/svg11.dtd">
<svg version="1.1" id="Layer_1" xmlns="http://www.w3.org/2000/svg" xmlns:xlink="http://www.w3.org/1999/xlink" x="0px" y="0px"
	 width="60px" height="60px" viewBox="0 0 60 60" enable-background="new 0 0 60 60" xml:space="preserve">
<g id="hammer_x5F_screwdriver_1_">
	
		<line fill="none" stroke="#333333" stroke-width="2" stroke-linecap="round" stroke-linejoin="round" stroke-miterlimit="10" x1="25" y1="19.002" x2="19" y2="19.002"/>
	<path fill="none" stroke="#333333" stroke-width="2" stroke-linecap="round" stroke-linejoin="round" stroke-miterlimit="10" d="
		M15,11c2.209,0,4,1.791,4,4v40.5c0,0.828,0.672,1.5,1.5,1.5h3c0.828,0,1.5-0.672,1.5-1.5V15c0-2.209,1.791-4,4-4
		c1.46,0,2.61,0.87,3.437,1.952C34,15,35,15,35,15h1c0.553,0,1-0.447,1-1V4c0-0.553-0.447-1-1-1h-1c0,0-1,0-2.529,1.99
		C31.627,6.089,30.484,7,29,7c-2.209,0-4-1.791-4-4h-6C7,3,3,15,3,15S9,11,15,11"/>
	<path fill="none" stroke="#333333" stroke-width="2" stroke-linejoin="round" stroke-miterlimit="10" d="M56.999,29
		C55.804,28.202,55,26.71,55,25c0-1.707,0.804-3.202,1.998-4H57V7c0-3.313-2.687-4-6-4s-6,0.687-6,4v14h0.002
		C46.196,21.798,47,23.293,47,25c0,1.71-0.804,3.202-1.999,4L45,31h12L56.999,29z"/>
	<polyline fill="none" stroke="#333333" stroke-width="2" stroke-linejoin="round" stroke-miterlimit="10" points="53,31 53,57 
		49,57 49,31 	"/>
	
		<line fill="none" stroke="#333333" stroke-width="2" stroke-linejoin="round" stroke-miterlimit="10" x1="49" y1="51" x2="53" y2="51"/>
</g>
</svg>
