<?xml version="1.0" encoding="utf-8"?>
<!-- Generator: Adobe Illustrator 16.0.0, SVG Export Plug-In . SVG Version: 6.00 Build 0)  -->
<!DOCTYPE svg PUBLIC "-//W3C//DTD SVG 1.1//EN" "http://www.w3.org/Graphics/SVG/1.1/DTD/svg11.dtd">
<svg version="1.1" id="Layer_1" xmlns="http://www.w3.org/2000/svg" xmlns:xlink="http://www.w3.org/1999/xlink" x="0px" y="0px"
	 width="60px" height="60px" viewBox="0 0 60 60" enable-background="new 0 0 60 60" xml:space="preserve">
<g>
	<path fill="none" stroke="#333333" stroke-width="2" stroke-linecap="round" stroke-linejoin="round" stroke-miterlimit="10" d="
		M34.666,47h-9.333C22.94,47,21,45.061,21,42.666V39h18v3.666C39,45.061,37.061,47,34.666,47z"/>
	<path fill="none" stroke="#333333" stroke-width="2" stroke-linecap="round" stroke-linejoin="round" stroke-miterlimit="10" d="
		M37,46.5V52c0,3.866-3.134,7-7,7l0,0c-3.866,0-7-3.134-7-7v-5.5"/>
	<path fill="none" stroke="#333333" stroke-width="2" stroke-linecap="round" stroke-linejoin="round" stroke-miterlimit="10" d="
		M48,19C48,8.382,38.807-0.088,27.947,1.114C19.471,2.052,12.719,9.058,12.056,17.56c-0.473,6.072,2.076,11.56,6.295,15.144
		C20.082,34.172,21,36.387,21,38.657V39h18v-0.504c0-2.197,0.909-4.328,2.59-5.744C45.507,29.454,48,24.522,48,19z"/>
	
		<line fill="none" stroke="#333333" stroke-width="2" stroke-linecap="round" stroke-linejoin="round" stroke-miterlimit="10" x1="23.9" y1="55" x2="36.2" y2="55"/>
	
		<line fill="none" stroke="#333333" stroke-width="2" stroke-linecap="round" stroke-linejoin="round" stroke-miterlimit="10" x1="23.1" y1="51" x2="37" y2="51"/>
	<path fill="none" stroke="#333333" stroke-width="2" stroke-linecap="round" stroke-linejoin="round" stroke-miterlimit="10" d="
		M41.7,25c-1.45,3.038-3.604,4.089-4.866,5.975"/>
	<path fill="none" stroke="#333333" stroke-width="2" stroke-linecap="round" stroke-linejoin="round" stroke-miterlimit="10" d="
		M19.329,10.589c2.504-3.249,6.435-5.342,10.854-5.342"/>
	<path fill="none" stroke="#333333" stroke-width="2" stroke-linecap="round" stroke-linejoin="round" stroke-miterlimit="10" d="
		M16.607,17.117c0.154-1.156,0.452-2.266,0.876-3.312"/>
</g>
</svg>
